<mxfile host="app.diagrams.net" modified="2022-08-15T06:10:10.992Z" agent="5.0 (Macintosh; Intel Mac OS X 10_15_7) AppleWebKit/537.36 (KHTML, like Gecko) Chrome/99.0.4844.74 Safari/537.36 Edg/99.0.1150.55" etag="mR5eKm5hSYy46OzINfzm" version="20.2.3" type="github">
  <diagram id="mUF7Dhoywo7Pxl9o-WP5" name="第 1 页">
    <mxGraphModel dx="1153" dy="768" grid="1" gridSize="10" guides="1" tooltips="1" connect="1" arrows="1" fold="1" page="1" pageScale="1" pageWidth="1200" pageHeight="1920" math="0" shadow="0">
      <root>
        <mxCell id="0" />
        <mxCell id="1" parent="0" />
      </root>
    </mxGraphModel>
  </diagram>
</mxfile>
